<svg id="Layer_1" enable-background="new 0 0 511 511" height="512" viewBox="0 0 511 511" width="512" xmlns="http://www.w3.org/2000/svg"><g><path d="m471.5 216c-12.984 0-24.522 6.299-31.727 16h-50.845c-3.439-19.447-11.094-38.032-22.446-54.248l35.936-35.936c1.928.285 3.872.43 5.817.43 10.115 0 20.23-3.85 27.931-11.551 7.461-7.46 11.569-17.38 11.569-27.931s-4.108-20.47-11.569-27.931c-7.46-7.461-17.379-11.569-27.931-11.569-10.551 0-20.47 4.108-27.931 11.569-9.181 9.181-12.886 21.794-11.12 33.748l-62.419 62.419 10.607 10.606 57.58-57.581c1.511 2.364 3.289 4.605 5.352 6.669 2.064 2.064 4.305 3.841 6.669 5.352l-57.581 57.581 10.606 10.606 15.705-15.705c13.311 19.802 20.297 42.752 20.297 66.972s-6.986 47.17-20.296 66.97l-15.705-15.705-10.606 10.607 57.581 57.581c-2.364 1.511-4.605 3.288-6.669 5.352s-3.841 4.305-5.352 6.669l-57.58-57.581-10.607 10.606 15.705 15.705c-19.802 13.309-42.754 20.296-66.971 20.296s-47.169-6.986-66.97-20.296l15.705-15.705-10.607-10.606-57.58 57.581c-1.511-2.364-3.288-4.605-5.352-6.669-15.401-15.402-40.461-15.401-55.861 0-7.461 7.46-11.569 17.38-11.569 27.931s4.108 20.47 11.569 27.931c7.46 7.461 17.379 11.569 27.931 11.569 10.551 0 20.47-4.108 27.931-11.569 9.181-9.181 12.886-21.794 11.12-33.748l35.936-35.936c16.215 11.352 34.802 19.007 54.248 22.446v50.846c-9.701 7.204-16 18.743-16 31.727 0 21.78 17.72 39.5 39.5 39.5s39.5-17.72 39.5-39.5c0-12.984-6.299-24.522-16-31.727v-50.846c19.447-3.439 38.034-11.094 54.248-22.446l35.936 35.936c-1.765 11.954 1.939 24.567 11.12 33.748 7.46 7.461 17.38 11.569 27.931 11.569s20.47-4.108 27.931-11.569c7.461-7.46 11.569-17.379 11.569-27.931 0-10.551-4.108-20.47-11.569-27.931-9.181-9.182-21.794-12.886-33.748-11.12l-35.936-35.936c11.352-16.215 19.007-34.801 22.446-54.248h50.845c7.204 9.701 18.743 16 31.727 16 21.78 0 39.5-17.72 39.5-39.5s-17.721-39.501-39.501-39.501zm-80.589-130.559c4.627-4.627 10.78-7.176 17.324-7.176s12.697 2.548 17.324 7.176c4.627 4.627 7.176 10.78 7.176 17.324s-2.548 12.697-7.176 17.324c-9.553 9.552-25.096 9.552-34.648 0-9.553-9.552-9.553-25.096 0-34.648zm-270.822 340.118c-4.628 4.627-10.78 7.176-17.324 7.176s-12.697-2.548-17.324-7.176-7.176-10.78-7.176-17.324 2.548-12.697 7.176-17.324c4.777-4.777 11.049-7.164 17.324-7.164 6.273 0 12.548 2.389 17.324 7.164 9.553 9.552 9.553 25.096 0 34.648zm126.911-34.83c2.825.179 5.66.271 8.5.271s5.675-.091 8.5-.271v42.202c-2.74-.603-5.582-.931-8.5-.931s-5.76.328-8.5.931zm33 80.771c0 13.509-10.991 24.5-24.5 24.5s-24.5-10.991-24.5-24.5 10.991-24.5 24.5-24.5 24.5 10.991 24.5 24.5zm128.235-87.753c6.273 0 12.548 2.389 17.324 7.164 4.627 4.627 7.176 10.78 7.176 17.324s-2.548 12.697-7.176 17.324-10.78 7.176-17.324 7.176-12.697-2.548-17.324-7.176c-9.552-9.552-9.552-25.096 0-34.648 4.777-4.777 11.049-7.164 17.324-7.164zm24.696-119.747h-42.202c.179-2.825.271-5.66.271-8.5s-.092-5.675-.271-8.5h42.202c-.604 2.74-.931 5.582-.931 8.5s.328 5.76.931 8.5zm38.569 16c-13.509 0-24.5-10.991-24.5-24.5s10.991-24.5 24.5-24.5 24.5 10.991 24.5 24.5-10.991 24.5-24.5 24.5z"/><path d="m71.227 279h50.845c3.407 19.269 10.958 37.69 22.14 53.8l-21.939 21.322 10.454 10.757 48.804-47.432-10.454-10.757-15.956 15.507c-13.192-19.738-20.121-42.587-20.121-66.697 0-24.217 6.986-47.169 20.296-66.97l15.705 15.705 10.606-10.606-57.581-57.581c2.364-1.511 4.605-3.289 6.669-5.352 2.064-2.064 3.841-4.305 5.352-6.669l57.58 57.581 10.607-10.606-15.704-15.705c19.8-13.31 42.75-20.296 66.97-20.296 19.323 0 37.776 4.433 54.847 13.175l6.838-13.351c-12.157-6.226-24.935-10.503-38.185-12.809v-50.789c9.701-7.204 16-18.743 16-31.727 0-21.78-17.72-39.5-39.5-39.5s-39.5 17.72-39.5 39.5c0 12.984 6.299 24.522 16 31.727v50.845c-19.447 3.439-38.032 11.094-54.248 22.447l-35.936-35.936c1.765-11.954-1.939-24.567-11.12-33.748-7.46-7.461-17.38-11.569-27.931-11.569s-20.47 4.108-27.931 11.569c-7.461 7.46-11.569 17.379-11.569 27.931 0 10.551 4.108 20.47 11.569 27.931 7.7 7.701 17.815 11.551 27.93 11.551 1.945 0 3.89-.146 5.818-.43l35.936 35.936c-11.352 16.214-19.007 34.801-22.446 54.248h-50.845c-7.204-9.701-18.743-16-31.727-16-21.78-.002-39.5 17.718-39.5 39.498s17.72 39.5 39.5 39.5c12.984 0 24.522-6.299 31.727-16zm192.773-158.737c-2.816-.172-5.649-.263-8.5-.263-2.84 0-5.675.091-8.5.271v-42.202c2.74.603 5.582.931 8.5.931s5.76-.328 8.5-.931zm-33-80.763c0-13.509 10.991-24.5 24.5-24.5s24.5 10.991 24.5 24.5-10.991 24.5-24.5 24.5-24.5-10.991-24.5-24.5zm-145.559 80.589c-4.627-4.628-7.176-10.78-7.176-17.324s2.548-12.697 7.176-17.324c4.627-4.627 10.78-7.176 17.324-7.176s12.697 2.548 17.324 7.176c9.552 9.552 9.552 25.096 0 34.648-9.552 9.553-25.095 9.552-34.648 0zm-7.372 126.911h42.202c-.179 2.825-.271 5.66-.271 8.5s.091 5.675.271 8.5h-42.202c.603-2.74.931-5.582.931-8.5s-.328-5.76-.931-8.5zm-38.569 33c-13.509 0-24.5-10.991-24.5-24.5s10.991-24.5 24.5-24.5 24.5 10.991 24.5 24.5-10.991 24.5-24.5 24.5z"/><path d="m223.5 327c21.78 0 39.5-17.72 39.5-39.5s-17.72-39.5-39.5-39.5-39.5 17.72-39.5 39.5 17.72 39.5 39.5 39.5zm0-64c13.509 0 24.5 10.991 24.5 24.5s-10.991 24.5-24.5 24.5-24.5-10.991-24.5-24.5 10.991-24.5 24.5-24.5z"/><path d="m303.5 208c-17.369 0-31.5 14.131-31.5 31.5s14.131 31.5 31.5 31.5 31.5-14.131 31.5-31.5-14.131-31.5-31.5-31.5zm0 48c-9.098 0-16.5-7.402-16.5-16.5s7.402-16.5 16.5-16.5 16.5 7.402 16.5 16.5-7.402 16.5-16.5 16.5z"/><path d="m239.5 176c-12.958 0-23.5 10.542-23.5 23.5s10.542 23.5 23.5 23.5 23.5-10.542 23.5-23.5-10.542-23.5-23.5-23.5zm0 32c-4.687 0-8.5-3.813-8.5-8.5s3.813-8.5 8.5-8.5 8.5 3.813 8.5 8.5-3.813 8.5-8.5 8.5z"/><path d="m175.5 224h16v15h-16z"/><path d="m159.5 240h16v15h-16z"/><path d="m343.5 264h16v15h-16z"/><path d="m327.5 280h16v15h-16z"/></g></svg>